<svg width="1000" height="1000" viewBox="0 0 1000 1000" fill="none" xmlns="http://www.w3.org/2000/svg">
<rect width="1000" height="1000" rx="500" fill="#111111"/>
<path d="M131.34 521.04H134.04C134.28 522.48 134.7 524.4 135.3 526.8C135.9 529.08 136.74 531.6 137.82 534.36C139.02 537 140.46 539.76 142.14 542.64C143.94 545.4 146.1 547.98 148.62 550.38C151.38 553.14 154.02 555.24 156.54 556.68C159.18 558.12 161.64 559.2 163.92 559.92C166.32 560.52 168.54 560.88 170.58 561C172.74 561 174.72 561 176.52 561C182.88 561 188.1 560.04 192.18 558.12C196.26 556.08 199.44 553.62 201.72 550.74C204.12 547.86 205.8 544.86 206.76 541.74C207.72 538.5 208.2 535.68 208.2 533.28C208.2 528.84 207.12 525.18 204.96 522.3C202.92 519.42 200.16 517.02 196.68 515.1C193.2 513.18 189.24 511.56 184.8 510.24C180.36 508.92 175.8 507.6 171.12 506.28C166.44 504.84 161.88 503.22 157.44 501.42C153 499.5 149.04 497.1 145.56 494.22C142.08 491.22 139.26 487.56 137.1 483.24C135.06 478.92 134.04 473.52 134.04 467.04C134.04 462.24 135.12 457.62 137.28 453.18C139.44 448.74 142.44 444.84 146.28 441.48C150.12 438 154.68 435.24 159.96 433.2C165.36 431.04 171.18 429.96 177.42 429.96C181.38 429.96 184.86 430.32 187.86 431.04C190.86 431.76 193.5 432.54 195.78 433.38C198.06 434.1 200.04 434.82 201.72 435.54C203.52 436.26 205.14 436.62 206.58 436.62C208.26 436.62 209.34 436.38 209.82 435.9C210.42 435.3 211.02 434.28 211.62 432.84H214.5V467.04H212.16C210.72 462.84 209.16 458.7 207.48 454.62C205.92 450.54 203.88 446.88 201.36 443.64C198.84 440.28 195.66 437.58 191.82 435.54C187.98 433.5 183.12 432.48 177.24 432.48C172.44 432.48 168.18 433.14 164.46 434.46C160.86 435.78 157.8 437.52 155.28 439.68C152.76 441.84 150.84 444.24 149.52 446.88C148.2 449.52 147.54 452.22 147.54 454.98C147.54 459.18 148.62 462.66 150.78 465.42C153.06 468.18 156 470.58 159.6 472.62C163.2 474.54 167.28 476.22 171.84 477.66C176.52 479.1 181.26 480.6 186.06 482.16C190.98 483.72 195.72 485.46 200.28 487.38C204.96 489.18 209.1 491.52 212.7 494.4C216.3 497.28 219.18 500.76 221.34 504.84C223.62 508.92 224.76 513.96 224.76 519.96C224.76 525.84 223.56 531.42 221.16 536.7C218.76 541.98 215.34 546.6 210.9 550.56C206.58 554.52 201.36 557.7 195.24 560.1C189.24 562.38 182.52 563.52 175.08 563.52C171.36 563.52 167.64 563.16 163.92 562.44C160.32 561.72 156.9 561 153.66 560.28C150.54 559.44 147.72 558.66 145.2 557.94C142.8 557.22 141 556.86 139.8 556.86C138.12 556.86 136.92 557.16 136.2 557.76C135.48 558.24 134.82 559.32 134.22 561H131.34V521.04ZM242.839 432.84H289.099L320.239 522.48H320.599L352.279 432.84H397.279V435.36H380.719V558.48H397.279V561H338.239V558.48H354.619V435.36H354.259L309.979 561H307.099L262.639 435.36H262.279V558.48H278.839V561H242.839V558.48H259.399V435.36H242.839V432.84ZM457.899 458.58L437.739 507.72H479.139L457.899 458.58ZM398.859 558.48H413.979L467.619 427.8H472.479L529.179 558.48H544.659V561H484.179V558.48H500.919L480.039 510.24H436.839L416.859 558.48H432.879V561H398.859V558.48ZM546.961 432.84H606.181V435.36H589.621V558.48H606.181V561H546.961V558.48H563.521V435.36H546.961V432.84ZM662.202 490.98H669.582C674.982 490.98 679.242 490.26 682.362 488.82C685.482 487.38 687.822 485.46 689.382 483.06C690.942 480.54 691.902 477.72 692.262 474.6C692.742 471.48 692.982 468.3 692.982 465.06C692.982 459.78 692.622 455.28 691.902 451.56C691.182 447.72 689.982 444.6 688.302 442.2C686.622 439.68 684.282 437.82 681.282 436.62C678.402 435.42 674.682 434.82 670.122 434.82C668.802 434.82 667.482 434.88 666.162 435C664.842 435.12 663.522 435.24 662.202 435.36V490.98ZM636.102 435.36H619.542V432.84H646.722C651.762 432.84 656.742 432.78 661.662 432.66C666.582 432.42 671.562 432.3 676.602 432.3C681.282 432.3 686.202 432.78 691.362 433.74C696.642 434.7 701.442 436.38 705.762 438.78C710.082 441.06 713.622 444.18 716.382 448.14C719.262 452.1 720.702 457.08 720.702 463.08C720.702 467.88 719.622 472.02 717.462 475.5C715.302 478.86 712.482 481.62 709.002 483.78C705.642 485.94 701.862 487.62 697.662 488.82C693.462 489.9 689.322 490.62 685.242 490.98V491.88C691.122 492.96 696.342 494.04 700.902 495.12C705.582 496.2 709.602 497.82 712.962 499.98C716.322 502.14 718.962 505.14 720.882 508.98C722.922 512.82 724.182 517.98 724.662 524.46C725.262 532.02 725.742 538.08 726.102 542.64C726.462 547.2 726.942 550.74 727.542 553.26C728.262 555.78 729.162 557.46 730.242 558.3C731.442 559.14 733.122 559.56 735.282 559.56C737.682 559.56 739.662 558.9 741.222 557.58C742.782 556.14 744.162 554.82 745.362 553.62L747.162 555.24C745.962 556.44 744.762 557.58 743.562 558.66C742.482 559.62 741.162 560.46 739.602 561.18C738.162 561.9 736.362 562.44 734.202 562.8C732.042 563.28 729.342 563.52 726.102 563.52C719.502 563.52 714.342 562.5 710.622 560.46C706.902 558.3 704.142 555.66 702.342 552.54C700.542 549.42 699.402 546.06 698.922 542.46C698.562 538.74 698.322 535.26 698.202 532.02C697.962 527.1 697.602 522.36 697.122 517.8C696.762 513.12 695.802 508.98 694.242 505.38C692.682 501.78 690.342 498.9 687.222 496.74C684.102 494.58 679.722 493.5 674.082 493.5H662.202V558.48H678.762V561H619.542V558.48H636.102V435.36ZM797.685 458.58L777.525 507.72H818.925L797.685 458.58ZM738.645 558.48H753.765L807.405 427.8H812.265L868.965 558.48H884.445V561H823.965V558.48H840.705L819.825 510.24H776.625L756.645 558.48H772.665V561H738.645V558.48Z" fill="url(#paint0_linear_9_25)"/>
<path d="M589.5 658V591.3H596.7V651H630.8V658H589.5ZM687.944 659C679.677 659 673.244 656.567 668.644 651.7C664.11 646.833 661.844 639.867 661.844 630.8V591.3H669.044V631.2C669.044 638.333 670.644 643.633 673.844 647.1C677.044 650.5 681.744 652.2 687.944 652.2C694.144 652.2 698.877 650.5 702.144 647.1C705.41 643.633 707.044 638.333 707.044 631.2V591.3H714.044V630.8C714.044 636.867 713.01 642 710.944 646.2C708.877 650.4 705.91 653.6 702.044 655.8C698.177 657.933 693.477 659 687.944 659ZM799.882 658H791.282L744.382 591.3H752.982L799.882 658ZM771.082 619.2L790.682 591.3H799.482L775.682 625.2L771.082 619.2ZM773.982 627.5L752.582 658H743.782L768.082 623.3L773.982 627.5ZM829.969 658V591.3H872.069V598.1H837.169V621.1H867.869V628.1H837.169V651.2H872.069V658H829.969Z" fill="url(#paint1_linear_9_25)"/>
<defs>
<linearGradient id="paint0_linear_9_25" x1="138.888" y1="452.341" x2="879.994" y2="561.191" gradientUnits="userSpaceOnUse">
<stop stop-color="#F8C441"/>
<stop offset="1" stop-color="#BD8748"/>
</linearGradient>
<linearGradient id="paint1_linear_9_25" x1="730.5" y1="561" x2="730.5" y2="679" gradientUnits="userSpaceOnUse">
<stop stop-color="#F8C441"/>
<stop offset="1" stop-color="#B07A48"/>
</linearGradient>
</defs>
</svg>
