<svg width="1000" height="1000" viewBox="0 0 1000 1000" fill="none" xmlns="http://www.w3.org/2000/svg">
<rect width="1000" height="1000" rx="500" fill="#111111"/>
<path d="M342.8 568.8H351.8C352.6 573.6 354 580 356 588C358 595.6 360.8 604 364.4 613.2C368.4 622 373.2 631.2 378.8 640.8C384.8 650 392 658.6 400.4 666.6C409.6 675.8 418.4 682.8 426.8 687.6C435.6 692.4 443.8 696 451.4 698.4C459.4 700.4 466.8 701.6 473.6 702C480.8 702 487.4 702 493.4 702C514.6 702 532 698.8 545.6 692.4C559.2 685.6 569.8 677.4 577.4 667.8C585.4 658.2 591 648.2 594.2 637.8C597.4 627 599 617.6 599 609.6C599 594.8 595.4 582.6 588.2 573C581.4 563.4 572.2 555.4 560.6 549C549 542.6 535.8 537.2 521 532.8C506.2 528.4 491 524 475.4 519.6C459.8 514.8 444.6 509.4 429.8 503.4C415 497 401.8 489 390.2 479.4C378.6 469.4 369.2 457.2 362 442.8C355.2 428.4 351.8 410.4 351.8 388.8C351.8 372.8 355.4 357.4 362.6 342.6C369.8 327.8 379.8 314.8 392.6 303.6C405.4 292 420.6 282.8 438.2 276C456.2 268.8 475.6 265.2 496.4 265.2C509.6 265.2 521.2 266.4 531.2 268.8C541.2 271.2 550 273.8 557.6 276.6C565.2 279 571.8 281.4 577.4 283.8C583.4 286.2 588.8 287.4 593.6 287.4C599.2 287.4 602.8 286.6 604.4 285C606.4 283 608.4 279.6 610.4 274.8H620V388.8H612.2C607.4 374.8 602.2 361 596.6 347.4C591.4 333.8 584.6 321.6 576.2 310.8C567.8 299.6 557.2 290.6 544.4 283.8C531.6 277 515.4 273.6 495.8 273.6C479.8 273.6 465.6 275.8 453.2 280.2C441.2 284.6 431 290.4 422.6 297.6C414.2 304.8 407.8 312.8 403.4 321.6C399 330.4 396.8 339.4 396.8 348.6C396.8 362.6 400.4 374.2 407.6 383.4C415.2 392.6 425 400.6 437 407.4C449 413.8 462.6 419.4 477.8 424.2C493.4 429 509.2 434 525.2 439.2C541.6 444.4 557.4 450.2 572.6 456.6C588.2 462.6 602 470.4 614 480C626 489.6 635.6 501.2 642.8 514.8C650.4 528.4 654.2 545.2 654.2 565.2C654.2 584.8 650.2 603.4 642.2 621C634.2 638.6 622.8 654 608 667.2C593.6 680.4 576.2 691 555.8 699C535.8 706.6 513.4 710.4 488.6 710.4C476.2 710.4 463.8 709.2 451.4 706.8C439.4 704.4 428 702 417.2 699.6C406.8 696.8 397.4 694.2 389 691.8C381 689.4 375 688.2 371 688.2C365.4 688.2 361.4 689.2 359 691.2C356.6 692.8 354.4 696.4 352.4 702H342.8V568.8Z" fill="url(#paint0_linear_11_5)"/>
<defs>
<linearGradient id="paint0_linear_11_5" x1="314.692" y1="340.705" x2="703.002" y2="349.489" gradientUnits="userSpaceOnUse">
<stop stop-color="#F8C441"/>
<stop offset="1" stop-color="#BD8748"/>
</linearGradient>
</defs>
</svg>
