<svg width="286" height="72" fill="none" xmlns="http://www.w3.org/2000/svg"><g clip-path="url(#a)"><path d="M282.021 8.603V62.78L286 58.805V12.582l-3.979-3.979Z" fill="#196EF7"/><path d="M12.803 71.582H273.22l3.979-3.975H8.829l3.974 3.975Z" fill="url(#b)"/><path d="m0 58.778 3.978 3.978V8.631L0 12.605v46.173Z" fill="#196EF7"/><path d="M12.605 0 8.631 3.978h268.766L273.419 0H12.605Z" fill="url(#c)"/><path d="M286 0v12.582l-3.979-3.979-4.625-4.625L273.418 0H286ZM286 58.805v12.777h-12.78L286 58.805ZM12.804 71.582H0V58.778l12.804 12.804ZM12.605 0 0 12.605V0h12.605Z" fill="#1DFAFF"/><path opacity=".17" d="M282.026 3.978H3.979v63.63h278.047V3.977Z" fill="#2457FC"/></g><defs><linearGradient id="b" x1="8.829" y1="69.595" x2="277.198" y2="69.595" gradientUnits="userSpaceOnUse"><stop offset=".04" stop-color="#196EF7"/><stop offset=".36" stop-color="#1970F7"/><stop offset=".47" stop-color="#1A77F8"/><stop offset=".55" stop-color="#1B82F8"/><stop offset=".61" stop-color="#1E93FA"/><stop offset=".67" stop-color="#20A9FB"/><stop offset=".72" stop-color="#23C4FD"/><stop offset=".76" stop-color="#27DEFF"/><stop offset=".83" stop-color="#21AEFB"/><stop offset=".89" stop-color="#1D8BF9"/><stop offset=".94" stop-color="#1A76F8"/><stop offset=".97" stop-color="#196EF7"/></linearGradient><linearGradient id="c" x1="8.631" y1="1.987" x2="277.397" y2="1.987" gradientUnits="userSpaceOnUse"><stop offset=".04" stop-color="#196EF7"/><stop offset=".09" stop-color="#1970F7"/><stop offset=".11" stop-color="#1A77F8"/><stop offset=".12" stop-color="#1B82F8"/><stop offset=".13" stop-color="#1E93FA"/><stop offset=".14" stop-color="#20A9FB"/><stop offset=".15" stop-color="#23C4FD"/><stop offset=".16" stop-color="#27E1FF"/><stop offset=".2" stop-color="#23C4FD"/><stop offset=".26" stop-color="#20A9FB"/><stop offset=".32" stop-color="#1E93FA"/><stop offset=".39" stop-color="#1B82F8"/><stop offset=".49" stop-color="#1A77F8"/><stop offset=".61" stop-color="#1970F7"/><stop offset=".97" stop-color="#196EF7"/></linearGradient><clipPath id="a"><path fill="#fff" d="M0 0h286v71.582H0z"/></clipPath></defs></svg>